<?xml version="1.0" standalone="no"?>
<!DOCTYPE svg PUBLIC "-//W3C//DTD SVG 20010904//EN"
 "http://www.w3.org/TR/2001/REC-SVG-20010904/DTD/svg10.dtd">
<svg version="1.0" xmlns="http://www.w3.org/2000/svg"
 width="512.000000pt" height="512.000000pt" viewBox="0 0 512.000000 512.000000"
 preserveAspectRatio="xMidYMid meet">
<metadata>
Created by potrace 1.14, written by Peter Selinger 2001-2017
</metadata>
<g transform="translate(0.000000,512.000000) scale(0.100000,-0.100000)"
fill="#000000" stroke="none">
<path d="M1985 4889 c-186 -43 -453 -153 -645 -265 -302 -177 -597 -460 -787
-754 -19 -30 -43 -66 -52 -80 -10 -14 -45 -80 -80 -147 l-62 -123 504 0 504 0
41 168 c64 262 140 478 237 673 61 122 78 153 88 157 4 2 7 8 7 13 0 29 156
234 245 322 27 26 46 47 44 46 -2 -1 -22 -5 -44 -10z"/>
<path d="M3154 4832 c165 -169 299 -390 412 -677 73 -188 111 -317 179 -612
l5 -23 500 0 c334 0 500 3 500 10 0 30 -147 293 -226 405 -118 167 -308 370
-459 491 -275 219 -610 385 -943 464 -33 8 -32 7 32 -58z"/>
<path d="M2460 4785 c-267 -86 -526 -450 -678 -950 -28 -91 -82 -295 -82 -309
0 -3 387 -6 860 -6 473 0 860 3 860 6 0 3 -14 60 -31 127 -146 579 -410 1006
-691 1118 -68 27 -178 34 -238 14z"/>
<path d="M217 3068 c-42 -205 -49 -268 -52 -473 -2 -173 1 -230 20 -380 7 -55
54 -276 62 -287 2 -5 245 -8 538 -8 l535 0 -5 53 c-3 28 -8 66 -10 82 -27 205
-27 839 0 1010 3 17 7 54 9 83 l5 52 -537 0 -538 0 -27 -132z"/>
<path d="M1639 3173 c0 -16 -2 -35 -3 -43 -29 -151 -42 -708 -23 -930 8 -99
19 -199 23 -220 1 -8 3 -25 3 -37 l1 -23 920 0 920 0 1 23 c0 12 2 31 4 42 5
31 15 131 23 235 9 121 9 556 -1 680 -9 125 -17 212 -22 236 -2 10 -4 29 -4
42 l-1 22 -920 0 -920 0 -1 -27z"/>
<path d="M3806 3143 c2 -31 6 -68 9 -82 26 -137 26 -846 1 -1001 -3 -14 -7
-51 -10 -82 l-5 -58 534 0 c293 0 536 3 538 8 7 10 54 229 62 282 16 122 20
189 19 355 0 99 -3 207 -7 240 -12 99 -17 139 -22 165 -3 14 -8 39 -10 55 -3
17 -14 62 -23 100 l-18 70 -536 3 -536 2 4 -57z"/>
<path d="M411 1499 c48 -96 155 -278 169 -289 4 -3 12 -15 19 -27 19 -36 147
-192 225 -273 237 -248 516 -440 818 -564 120 -49 187 -71 373 -123 12 -3 -4
19 -42 58 -109 112 -152 171 -283 389 -5 8 -23 44 -40 80 -18 36 -36 73 -41
82 -20 38 -91 224 -123 321 -28 86 -63 218 -108 410 l-9 37 -504 0 -505 0 51
-101z"/>
<path d="M1700 1594 c0 -43 116 -430 155 -519 7 -16 30 -68 51 -115 149 -337
362 -574 564 -626 149 -38 287 13 435 161 95 94 104 106 171 210 94 146 156
276 225 470 44 122 117 381 119 418 0 4 -387 7 -860 7 -473 0 -860 -3 -860 -6z"/>
<path d="M3745 1578 c-29 -130 -58 -245 -75 -303 -11 -38 -22 -77 -24 -85 -26
-105 -143 -386 -211 -510 -97 -174 -174 -282 -281 -392 -64 -65 -65 -66 -32
-58 248 58 462 150 750 323 49 29 210 152 273 209 91 81 207 202 282 294 77
93 208 297 271 422 l63 122 -505 0 -506 0 -5 -22z"/>
</g>
</svg>
